<?xml version="1.0" encoding="utf-8"?>
<!-- Generator: Adobe Illustrator 19.2.1, SVG Export Plug-In . SVG Version: 6.00 Build 0)  -->
<svg version="1.1" id="Layer_1" xmlns="http://www.w3.org/2000/svg" xmlns:xlink="http://www.w3.org/1999/xlink" x="0px" y="0px"
	 viewBox="0 0 40 40" style="enable-background:new 0 0 40 40;" xml:space="preserve">
<style type="text/css">
	.st0{fill:#384B61;}
</style>
<g>
	<path class="st0" d="M6,6.1c3.9-3.9,8.5-5.8,14-5.8c5.5,0,10.1,1.9,14,5.8c3.9,3.9,5.8,8.5,5.8,13.9c0,5.4-1.9,10.1-5.8,13.9
		c-3.9,3.9-8.5,5.8-14,5.8c-5.5,0-10.1-1.9-14-5.8C2.1,30.1,0.2,25.4,0.2,20C0.2,14.6,2.1,9.9,6,6.1z M16.1,29.9l17.8-17.8l-2.8-2.9
		l-15,15l-7.1-7L6.1,20L16.1,29.9z"/>
</g>
</svg>
