<?xml version="1.0" encoding="utf-8"?>
<!-- Generator: Adobe Illustrator 19.2.1, SVG Export Plug-In . SVG Version: 6.00 Build 0)  -->
<svg version="1.1" id="Layer_1" xmlns="http://www.w3.org/2000/svg" xmlns:xlink="http://www.w3.org/1999/xlink" x="0px" y="0px"
	 viewBox="0 0 1486 1298" style="enable-background:new 0 0 1486 1298;" xml:space="preserve">
<style type="text/css">
	.st0{fill:#C7DEF5;}
	.st1{fill:#1ABC9C;}
	.st2{fill:#FFFFFF;}
</style>
<g id="icomoon-ignore">
</g>
<path class="st0" d="M348.9,1017.3h489.2c45.5,0-37.9-201-37.9-201c-3.8-11.4-15.2-19-26.5-22.8l-75.9-34.1l-37.9-30.3l-60.7,60.7
	l26.5,170.7l-26.5,37.9l-26.5-37.9l26.5-170.7L531,725.3L493,755.7l-75.9,34.1c-11.4,3.8-22.8,11.4-26.5,22.8
	C386.8,816.3,303.4,1017.3,348.9,1017.3L348.9,1017.3L348.9,1017.3z"/>
<path class="st0" d="M591.6,740.5c60.7,0,136.5-72.1,140.3-197.2c0-87.2-41.7-136.5-140.3-136.5s-140.3,53.1-140.3,136.5
	C455.1,668.4,523.4,740.5,591.6,740.5L591.6,740.5z M565.1,581.2c72.1,7.6,136.5-94.8,132.7-3.8c0,53.1-49.3,136.5-106.2,136.5
	S493,645.7,485.5,577.4C477.9,501.6,614.4,520.5,565.1,581.2L565.1,581.2L565.1,581.2z"/>
<path class="st0" d="M1130.2,274H53.1C22.8,274,0,296.8,0,327.1V1097c0,30.3,22.8,53.1,53.1,53.1h1077.1c30.3,0,53.1-22.8,53.1-53.1
	V327.1C1183.3,296.8,1160.5,274,1130.2,274C1130.2,274,1130.2,274,1130.2,274z M1103.6,1070.4H79.6V353.6h1024V1070.4z"/>
<path class="st0" d="M0,1237.3c0,15.2,15.2,30.3,30.3,30.3h288.2V1207H30.3C15.2,1207,0,1222.1,0,1237.3L0,1237.3L0,1237.3z"/>
<path class="st0" d="M1156.7,1207H436.1v60.7h720.6c15.2,0,30.3-15.2,30.3-30.3C1183.3,1222.1,1171.9,1207,1156.7,1207L1156.7,1207
	L1156.7,1207z"/>
<path class="st0" d="M375.5,1176.6c-19,0-34.1,15.2-34.1,34.1v49.3c0,19,15.2,37.9,34.1,37.9s34.1-15.2,34.1-37.9v-49.3
	C413.4,1191.8,394.4,1176.6,375.5,1176.6L375.5,1176.6L375.5,1176.6z"/>
<circle class="st1" cx="1153" cy="337" r="333"/>
<g>
	<path class="st2" d="M1098,428.5l236.3-236.3l30.2,31.2L1098,489.9L974.1,366l31.2-31.2L1098,428.5z"/>
</g>
</svg>
