<?xml version="1.0" encoding="utf-8"?>
<!-- Generator: Adobe Illustrator 19.2.1, SVG Export Plug-In . SVG Version: 6.00 Build 0)  -->
<svg version="1.1" id="Layer_1" xmlns="http://www.w3.org/2000/svg" xmlns:xlink="http://www.w3.org/1999/xlink" x="0px" y="0px"
	 viewBox="0 0 20 20" style="enable-background:new 0 0 20 20;" xml:space="preserve">
<style type="text/css">
	.st0{fill:#6DA8DB;}
</style>
<g>
	<path class="st0" d="M19.5,17.7L19,17.2l-4.3-4.3h-0.9l-0.3-0.3c1.2-1.4,1.8-3,1.8-4.8c0-2.1-0.7-3.8-2.2-5.3
		C11.6,1,9.8,0.2,7.8,0.2S4,1,2.5,2.4C1.1,3.9,0.3,5.6,0.3,7.7c0,2,0.7,3.8,2.2,5.2c1.4,1.5,3.2,2.2,5.3,2.2c1.8,0,3.4-0.6,4.8-1.8
		l0.3,0.3v0.9l4.8,4.8c0.2,0.1,0.4,0.2,0.6,0.2c0.7,0,1.3-0.6,1.3-1.3C19.7,18,19.6,17.8,19.5,17.7z M11.4,11.3
		c-1,1-2.2,1.5-3.6,1.5s-2.6-0.5-3.6-1.5S2.7,9.1,2.7,7.7C2.7,6.3,3.2,5,4.2,4s2.2-1.5,3.6-1.5S10.4,3,11.4,4S13,6.3,13,7.7
		C13,9.1,12.4,10.3,11.4,11.3z"/>
</g>
</svg>
