<?xml version="1.0" encoding="utf-8"?>
<!-- Generator: Adobe Illustrator 19.2.1, SVG Export Plug-In . SVG Version: 6.00 Build 0)  -->
<svg version="1.1" id="Layer_1" xmlns="http://www.w3.org/2000/svg" xmlns:xlink="http://www.w3.org/1999/xlink" x="0px" y="0px"
	 viewBox="0 0 104.6 86.3" style="enable-background:new 0 0 104.6 86.3;" xml:space="preserve">
<style type="text/css">
	.st0{fill:#316BB3;}
	.st1{fill:#83A4B6;}
	.st2{clip-path:url(#XMLID_2_);}
	.st3{fill:#1360A5;}
	.st4{clip-path:url(#XMLID_3_);}
	.st5{fill:#3C79BC;}
	.st6{clip-path:url(#XMLID_4_);}
	.st7{fill:#FFFFFF;}
</style>
<g id="XMLID_74_">
	<g id="XMLID_93_">
		<path id="XMLID_113_" class="st0" d="M6.2,86.2c-1,0-1.8-0.1-2.6-0.4c-0.8-0.3-1.4-0.7-2-1.3c-0.5-0.6-1-1.3-1.3-2.3
			c-0.3-0.9-0.4-2-0.4-3.4v-4.6c0-1,0.2-1.8,0.5-2.4c0.3-0.5,0.7-0.9,1.3-1.2c0.4-0.1,0.8-0.2,1.3-0.3c0.3,0,0.6-0.1,1-0.1
			c0.4,0,0.7,0,1,0c0.8,0,1.4,0.1,2,0.3c0.6,0.2,1,0.5,1.4,0.9c0.4,0.4,0.7,0.8,0.8,1.2c0.2,0.5,0.3,0.9,0.3,1.4
			c0,0.5-0.1,0.9-0.3,1.3c-0.2,0.4-0.4,0.8-0.7,1.1c0.4,0.2,0.8,0.4,1.2,0.6c0.4,0.3,0.7,0.6,1,1c0.3,0.4,0.5,0.8,0.7,1.3
			c0.2,0.5,0.2,1,0.2,1.6c0,0.7-0.1,1.3-0.4,1.9c-0.3,0.6-0.6,1.1-1.1,1.6c-0.5,0.5-1,0.8-1.7,1.1C7.8,86.1,7,86.2,6.2,86.2z
			 M6.2,84c0.5,0,0.9-0.1,1.2-0.2c0.3-0.2,0.6-0.4,0.8-0.6c0.2-0.3,0.4-0.6,0.5-0.9c0.1-0.4,0.1-0.7,0.1-1.1c0-0.6-0.1-1.2-0.3-1.6
			c-0.2-0.4-0.5-0.7-0.8-1c-0.3-0.2-0.7-0.4-1.1-0.5C6.1,78,5.7,78,5.3,78c-0.4,0-0.7,0-1,0c-0.3,0-0.6,0-0.8,0c-0.3,0-0.5,0-0.8,0
			v1c0,1,0,1.8,0.2,2.5C3,82.1,3.3,82.6,3.6,83c0.3,0.4,0.7,0.7,1.1,0.8C5.1,83.9,5.7,84,6.2,84z M2.7,76.2h1.9
			c0.8,0,1.4-0.1,1.9-0.4c0.4-0.3,0.7-0.8,0.7-1.5c0-0.4-0.1-0.7-0.2-0.9c-0.1-0.2-0.3-0.4-0.5-0.6c-0.2-0.2-0.4-0.3-0.7-0.3
			c-0.2-0.1-0.5-0.1-0.7-0.1c-0.2,0-0.4,0-0.7,0c-0.3,0-0.5,0-0.8,0.1c-0.2,0.1-0.5,0.2-0.6,0.3c-0.2,0.1-0.3,0.4-0.3,0.7V76.2z"/>
		<path id="XMLID_111_" class="st0" d="M17.6,72.6c0-0.4,0-0.8,0-1.1c0-0.3,0-0.5,0-0.7c0-0.2,0-0.3,0-0.4c1.8,0,2.7,0.9,2.7,2.6
			l0,5.6c0,1,0,1.8,0.1,2.4c0.1,0.6,0.2,1.2,0.5,1.6c0.3,0.4,0.6,0.7,1.1,0.8c0.5,0.2,1.1,0.3,1.9,0.3c0.4,0,0.7,0,1,0
			c0.3,0,0.6,0,0.8,0c0.2,0,0.5,0,0.7-0.1v0.1c0,0.2-0.1,0.5-0.2,0.7c-0.1,0.3-0.3,0.5-0.5,0.7c-0.2,0.2-0.5,0.4-0.9,0.5
			C24.4,85.9,24,86,23.5,86c-1.2,0-2.1-0.1-2.9-0.4c-0.8-0.2-1.4-0.7-1.8-1.2c-0.4-0.6-0.8-1.3-0.9-2.3c-0.2-1-0.3-2.1-0.3-3.5V72.6
			z"/>
		<path id="XMLID_109_" class="st0" d="M85.7,70.6c-0.9,2.3-1.7,4.5-2.5,6.4c-0.3,0.8-0.7,1.7-1,2.5c-0.3,0.8-0.6,1.6-0.9,2.3
			c-0.3,0.7-0.5,1.3-0.8,1.8c-0.2,0.5-0.4,0.9-0.5,1.1c-0.3,0.5-0.5,0.8-0.9,1c-0.3,0.2-0.7,0.3-0.9,0.3c-0.4,0-0.7,0-1.1-0.1
			l-6.1-15.4c0.4-0.1,0.7-0.1,1.1-0.1c0.4,0,0.7,0.1,1,0.2c0.3,0.1,0.6,0.3,0.8,0.5c0.3,0.2,0.5,0.5,0.6,0.9c0,0.1,0.1,0.2,0.2,0.6
			c0.1,0.3,0.3,0.7,0.5,1.2c0.2,0.5,0.4,1,0.6,1.6c0.2,0.6,0.4,1.2,0.7,1.8c0.5,1.4,1.2,3,1.8,4.8c0.7-1.8,1.3-3.4,1.8-4.8
			c0.2-0.6,0.5-1.2,0.7-1.8c0.2-0.6,0.4-1.1,0.6-1.6c0.2-0.5,0.3-0.9,0.5-1.2c0.1-0.3,0.2-0.5,0.2-0.6c0.2-0.4,0.4-0.7,0.6-0.9
			c0.3-0.2,0.5-0.4,0.8-0.5c0.3-0.1,0.6-0.2,1-0.2C85,70.5,85.4,70.5,85.7,70.6z"/>
		<g id="XMLID_104_">
			<path id="XMLID_106_" class="st0" d="M39,70.4c1,0,1.9,0.2,2.8,0.5c0.9,0.3,1.7,0.8,2.4,1.5c0.7,0.7,1.3,1.5,1.7,2.5
				c0.4,1,0.6,2.1,0.6,3.4c0,1.3-0.2,2.4-0.6,3.4c-0.4,1-1,1.8-1.7,2.5c-0.7,0.7-1.5,1.2-2.4,1.5c-0.9,0.3-1.8,0.5-2.8,0.5
				c-1,0-1.9-0.2-2.8-0.5c-0.9-0.3-1.7-0.8-2.4-1.5c-0.7-0.7-1.3-1.5-1.7-2.5c-0.4-1-0.6-2.1-0.6-3.4c0-1.3,0.2-2.4,0.6-3.4
				c0.4-1,1-1.8,1.7-2.5c0.7-0.7,1.5-1.2,2.4-1.5C37.1,70.5,38,70.4,39,70.4z M39,84.3c0.6,0,1.1-0.1,1.7-0.4c0.6-0.2,1-0.6,1.5-1.1
				c0.4-0.5,0.8-1.1,1.1-1.9c0.3-0.8,0.4-1.7,0.4-2.7c0-1-0.1-1.9-0.4-2.7c-0.3-0.8-0.6-1.4-1.1-1.9c-0.4-0.5-0.9-0.8-1.5-1.1
				c-0.5-0.2-1.1-0.4-1.7-0.4c-0.6,0-1.1,0.1-1.7,0.4c-0.5,0.2-1,0.6-1.5,1.1c-0.4,0.5-0.8,1.1-1.1,1.9s-0.4,1.6-0.4,2.7
				c0,1,0.1,1.9,0.4,2.7c0.3,0.8,0.6,1.4,1.1,1.9c0.4,0.5,0.9,0.9,1.5,1.1C37.8,84.2,38.4,84.3,39,84.3z"/>
			<path id="XMLID_17_" class="st1" d="M45.9,74.8c-0.4-1-1-1.8-1.7-2.5c-0.7-0.7-1.5-1.2-2.4-1.5c-0.7-0.3-1.4-0.4-2.2-0.5
				c0.6,0.7,1.2,1.6,1.6,2.5c0.3,0.2,0.7,0.5,0.9,0.8c0.4,0.5,0.8,1.1,1.1,1.9c0.3,0.8,0.4,1.6,0.4,2.7c0,1-0.1,1.9-0.4,2.7
				c-0.3,0.8-0.6,1.4-1.1,1.9c-0.4,0.5-0.9,0.9-1.5,1.1c-0.2,0.1-0.3,0.1-0.5,0.1c-0.6,0.8-1.2,1.5-2,2c0.2,0,0.5,0.1,0.7,0.1
				c1,0,1.9-0.2,2.8-0.5c0.9-0.3,1.7-0.8,2.4-1.5c0.7-0.7,1.3-1.5,1.7-2.5c0.4-1,0.6-2.1,0.6-3.4C46.5,77,46.3,75.8,45.9,74.8z"/>
		</g>
		<g id="XMLID_99_">
			<path id="XMLID_101_" class="st0" d="M59.7,70.4c1,0,1.9,0.2,2.8,0.5c0.9,0.3,1.7,0.8,2.4,1.5c0.7,0.7,1.3,1.5,1.7,2.5
				c0.4,1,0.6,2.1,0.6,3.4c0,1.3-0.2,2.4-0.6,3.4c-0.4,1-1,1.8-1.7,2.5c-0.7,0.7-1.5,1.2-2.4,1.5c-0.9,0.3-1.8,0.5-2.8,0.5
				c-1,0-1.9-0.2-2.8-0.5c-0.9-0.3-1.7-0.8-2.4-1.5c-0.7-0.7-1.3-1.5-1.7-2.5c-0.4-1-0.6-2.1-0.6-3.4c0-1.3,0.2-2.4,0.6-3.4
				c0.4-1,1-1.8,1.7-2.5c0.7-0.7,1.5-1.2,2.4-1.5C57.8,70.6,58.8,70.4,59.7,70.4z M59.7,84.3c0.6,0,1.1-0.1,1.7-0.4
				c0.5-0.2,1-0.6,1.5-1.1c0.4-0.5,0.8-1.1,1.1-1.9c0.3-0.8,0.4-1.7,0.4-2.7c0-1-0.1-1.9-0.4-2.7c-0.3-0.8-0.6-1.4-1.1-1.9
				c-0.4-0.5-0.9-0.8-1.5-1.1c-0.5-0.2-1.1-0.4-1.7-0.4c-0.6,0-1.1,0.1-1.7,0.4c-0.6,0.2-1,0.6-1.5,1.1c-0.4,0.5-0.8,1.1-1.1,1.9
				c-0.3,0.8-0.4,1.6-0.4,2.7c0,1,0.1,1.9,0.4,2.7c0.3,0.8,0.6,1.4,1.1,1.9c0.4,0.5,0.9,0.9,1.5,1.1C58.6,84.2,59.1,84.3,59.7,84.3z
				"/>
			<path id="XMLID_14_" class="st1" d="M66.6,74.9c-0.4-1-1-1.8-1.7-2.5c-0.7-0.7-1.5-1.2-2.4-1.5c-0.7-0.3-1.4-0.4-2.2-0.5
				c0.6,0.7,1.2,1.6,1.6,2.5c0.3,0.2,0.7,0.5,0.9,0.8c0.4,0.5,0.8,1.1,1.1,1.9c0.3,0.8,0.4,1.6,0.4,2.7c0,1-0.1,1.9-0.4,2.7
				c-0.3,0.8-0.6,1.4-1.1,1.9c-0.4,0.5-0.9,0.9-1.5,1.1c-0.1,0.1-0.3,0.1-0.5,0.1c-0.6,0.8-1.2,1.5-2,2c0.2,0,0.5,0.1,0.7,0.1
				c1,0,1.9-0.2,2.8-0.5c0.9-0.3,1.7-0.8,2.4-1.5c0.7-0.7,1.3-1.5,1.7-2.5c0.4-1,0.6-2.1,0.6-3.4C67.2,77,67,75.8,66.6,74.9z"/>
		</g>
		<g id="XMLID_94_">
			<path id="XMLID_96_" class="st0" d="M97.1,70.4c1,0,1.9,0.2,2.8,0.5c0.9,0.3,1.7,0.8,2.4,1.5c0.7,0.7,1.3,1.5,1.7,2.5
				c0.4,1,0.6,2.1,0.6,3.4c0,1.3-0.2,2.4-0.6,3.4c-0.4,1-1,1.8-1.7,2.5c-0.7,0.7-1.5,1.2-2.4,1.5c-0.9,0.3-1.8,0.5-2.8,0.5
				c-1,0-1.9-0.2-2.8-0.5c-0.9-0.3-1.7-0.8-2.4-1.5c-0.7-0.7-1.3-1.5-1.7-2.5c-0.4-1-0.6-2.1-0.6-3.4c0-1.3,0.2-2.4,0.6-3.4
				c0.4-1,1-1.8,1.7-2.5c0.7-0.7,1.5-1.2,2.4-1.5C95.2,70.6,96.2,70.4,97.1,70.4z M97.1,84.4c0.6,0,1.1-0.1,1.7-0.4
				c0.6-0.2,1-0.6,1.5-1.1c0.4-0.5,0.8-1.1,1.1-1.9c0.3-0.7,0.4-1.6,0.4-2.7c0-1-0.1-1.9-0.4-2.7c-0.3-0.8-0.6-1.4-1.1-1.9
				c-0.4-0.5-0.9-0.8-1.5-1.1c-0.5-0.2-1.1-0.4-1.7-0.4c-0.6,0-1.1,0.1-1.7,0.4c-0.5,0.2-1,0.6-1.5,1.1c-0.4,0.5-0.8,1.1-1.1,1.9
				c-0.3,0.8-0.4,1.6-0.4,2.7c0,1,0.1,1.9,0.4,2.7c0.3,0.8,0.6,1.4,1.1,1.9c0.4,0.5,0.9,0.9,1.5,1.1C96,84.3,96.6,84.4,97.1,84.4z"
				/>
			<path id="XMLID_11_" class="st1" d="M104,74.9c-0.4-1-1-1.8-1.7-2.5c-0.7-0.7-1.5-1.2-2.4-1.5c-0.7-0.3-1.4-0.4-2.2-0.5
				c0.6,0.7,1.2,1.6,1.6,2.5c0.3,0.2,0.7,0.5,0.9,0.8c0.4,0.5,0.8,1.1,1.1,1.9c0.3,0.8,0.4,1.6,0.4,2.7c0,1-0.1,1.9-0.4,2.7
				c-0.3,0.8-0.6,1.4-1.1,1.9c-0.4,0.5-0.9,0.9-1.5,1.1c-0.1,0.1-0.3,0.1-0.5,0.1c-0.6,0.8-1.2,1.5-2,2c0.2,0,0.5,0.1,0.7,0.1
				c1,0,1.9-0.2,2.8-0.5c0.9-0.3,1.7-0.8,2.4-1.5c0.7-0.7,1.3-1.5,1.7-2.5c0.4-1,0.6-2.1,0.6-3.4C104.6,77,104.4,75.9,104,74.9z"/>
		</g>
	</g>
	<g id="XMLID_75_">
		<g id="XMLID_81_">
			<defs>
				<path id="XMLID_5_" d="M25.8,35.2C25.8,20.3,36,0,50.9,0C65.8,0,76,20.3,76,35.2c0,14.9-10.2,27.4-25.1,27.4
					C36,62.6,25.8,50.2,25.8,35.2z"/>
			</defs>
			<clipPath id="XMLID_2_">
				<use xlink:href="#XMLID_5_"  style="overflow:visible;"/>
			</clipPath>
			<g id="XMLID_83_" class="st2">
				<path id="XMLID_10_" class="st0" d="M25.8,35.3c0-15,10.2-35.3,25.2-35.3c15,0,25.2,20.4,25.2,35.3c0,15-10.2,27.1-25.2,27.1
					C36,62.3,25.8,50.2,25.8,35.3z"/>
				<g id="XMLID_89_">
					<path id="XMLID_9_" class="st0" d="M25.3,35.2C25.3,20.3,35.5,0,50.4,0c14.9,0,25.1,20.3,25.1,35.2c0,14.9-10.2,27-25.1,27
						C35.5,62.3,25.3,50.2,25.3,35.2z"/>
					<path id="XMLID_8_" class="st3" d="M51.7,0c8.9,6.6,14.4,20.5,14.4,31.5c0,14.9-6.9,29-24.1,28.1c-1.3-0.1-2.1,0.1-3.2-0.1
						c3.6,2.1,7.4,2.8,12.1,2.8c5.6,0,10.5-1.7,14.5-4.6C72,52.8,76,44.6,76,35.3C76,20.6,66.2,0.8,51.7,0z"/>
				</g>
				<g id="XMLID_84_">
					<defs>
						<circle id="XMLID_7_" cx="32.4" cy="23.9" r="26.6"/>
					</defs>
					<use xlink:href="#XMLID_7_"  style="overflow:visible;fill:#3C79BC;"/>
					<clipPath id="XMLID_3_">
						<use xlink:href="#XMLID_7_"  style="overflow:visible;"/>
					</clipPath>
					<g id="XMLID_86_" class="st4">
						<path id="XMLID_18_" class="st5" d="M25.3,35.4c0-14.9,10.2-35.2,25.1-35.2c14.9,0,25.1,20.3,25.1,35.2
							c0,14.9-10.2,27-25.1,27C35.5,62.4,25.3,50.3,25.3,35.4z"/>
						<path id="XMLID_26_" class="st5" d="M51.7,0.2c8.9,6.6,14.4,20.5,14.4,31.5c0,14.9-6.9,29-24.1,28.1c-1.3-0.1-2.5-0.2-3.7-0.3
							c3.6,2.1,7.8,3,12.5,3c5.6,0,10.5-1.7,14.5-4.6C72,53,76,44.7,76,35.4C76,20.8,66.2,0.9,51.7,0.2z"/>
					</g>
				</g>
			</g>
		</g>
		<g id="XMLID_76_">
			<defs>
				<path id="XMLID_6_" d="M56.1,29.6c4.1-3,6.1-7.2,6.1-12.7c0-4.7-1.5-8.4-4.4-11.3C55,2.6,51.4,1.2,47.2,1.2l-2.7,0
					c-3.2,1.1-5.7,3.1-8.3,5.7c6.1-1.1,13.8-0.5,16.8,3c1.5,1.8,2.5,4,2.5,7c0,3-0.8,5.3-2.5,6.9c-1.7,1.7-3.6,2.5-5.9,2.5l-20.7,0
					c-0.5,2.1-0.8,4.1-1,6.2l19.3,0c3.9,0,7.2,1.4,9.9,4.1c2.8,2.9,4.2,6,4.2,9.4c0,3.4-1,7-4.2,9.4C49.3,59.3,44,60,39.1,59.6
					c3.1,2.1,14.6,5.5,20.5-0.2c4.1-4,6.1-8.4,6.1-13.5C65.7,39.1,62.5,33.7,56.1,29.6z"/>
			</defs>
			<use xlink:href="#XMLID_6_"  style="overflow:visible;fill:#FFFFFF;"/>
			<clipPath id="XMLID_4_">
				<use xlink:href="#XMLID_6_"  style="overflow:visible;"/>
			</clipPath>
			<g id="XMLID_78_" class="st6">
				<path id="XMLID_27_" class="st7" d="M25.5,35.6c0-14.9,10.2-35.2,25.1-35.2c14.9,0,25.1,20.3,25.1,35.2c0,14.9-10.2,27-25.1,27
					C35.7,62.7,25.5,50.6,25.5,35.6z"/>
				<path id="XMLID_28_" class="st7" d="M51.9,0.4C60.8,7,66.3,20.9,66.3,31.9c0,14.9-6.9,29-24.1,28.1c-1.3-0.1-2.5-0.2-3.7-0.3
					c3.6,2.1,7.8,3,12.5,3c5.6,0,10.5-1.7,14.5-4.6c6.6-4.9,10.6-13.1,10.6-22.4C76.2,21,66.4,1.2,51.9,0.4z"/>
			</g>
		</g>
	</g>
</g>
</svg>
