<?xml version="1.0" encoding="utf-8"?>
<!-- Generator: Adobe Illustrator 19.2.1, SVG Export Plug-In . SVG Version: 6.00 Build 0)  -->
<svg version="1.1" id="Layer_1" xmlns="http://www.w3.org/2000/svg" xmlns:xlink="http://www.w3.org/1999/xlink" x="0px" y="0px"
	 viewBox="0 0 183.8 30.5" style="enable-background:new 0 0 183.8 30.5;" xml:space="preserve">
<style type="text/css">
	.st0{clip-path:url(#XMLID_2_);}
	.st1{fill:#306BB5;}
	.st2{fill:#125FA7;}
	.st3{clip-path:url(#XMLID_5_);}
	.st4{fill:#3B79BD;}
	.st5{fill:#FFFFFF;}
	.st6{clip-path:url(#XMLID_6_);}
</style>
<g id="XMLID_123_">
	<defs>
		<path id="XMLID_124_" d="M0,17.2C0,9.9,5,0,12.2,0c7.3,0,12.2,9.9,12.2,17.2c0,7.3-5,13.2-12.2,13.2C5,30.4,0,24.5,0,17.2z"/>
	</defs>
	<clipPath id="XMLID_2_">
		<use xlink:href="#XMLID_124_"  style="overflow:visible;"/>
	</clipPath>
	<g id="XMLID_125_" class="st0">
		<path id="XMLID_134_" class="st1" d="M0,17.2C0,9.9,5,0,12.3,0c7.3,0,12.3,9.9,12.3,17.2s-5,13.2-12.3,13.2C5,30.4,0,24.5,0,17.2z
			"/>
		<g id="XMLID_131_">
			<path id="XMLID_133_" class="st1" d="M-0.2,17.2C-0.2,9.9,4.8,0,12,0c7.3,0,12.2,9.9,12.2,17.2c0,7.3-5,13.2-12.2,13.2
				C4.8,30.4-0.2,24.5-0.2,17.2z"/>
			<path id="XMLID_132_" class="st2" d="M12.7,0c4.3,3.2,7,10,7,15.3c0,7.3-3.3,14.1-11.7,13.7c-0.6,0-1.2-0.1-1.8-0.2
				c1.8,1,3.8,1.5,6.1,1.5c2.7,0,5.1-0.8,7.1-2.2c3.2-2.4,5.2-6.4,5.2-10.9C24.5,10.1,19.7,0.4,12.7,0z"/>
		</g>
		<g id="XMLID_126_">
			<defs>
				<circle id="XMLID_127_" cx="3.2" cy="11.7" r="13"/>
			</defs>
			<use xlink:href="#XMLID_127_"  style="overflow:visible;fill:#3B79BD;"/>
			<clipPath id="XMLID_5_">
				<use xlink:href="#XMLID_127_"  style="overflow:visible;"/>
			</clipPath>
			<g id="XMLID_128_" class="st3">
				<path id="XMLID_130_" class="st4" d="M-0.2,17.3c0-7.3,5-17.2,12.2-17.2c7.3,0,12.2,9.9,12.2,17.2c0,7.3-5,13.2-12.2,13.2
					C4.7,30.4-0.2,24.5-0.2,17.3z"/>
				<path id="XMLID_129_" class="st4" d="M12.7,0.1c4.3,3.2,7,10,7,15.3c0,7.3-3.3,14.1-11.7,13.7c-0.6,0-1.2-0.1-1.8-0.2
					c1.7,1,3.8,1.5,6.1,1.5c2.7,0,5.1-0.8,7.1-2.2c3.2-2.4,5.2-6.4,5.2-10.9C24.5,10.1,19.7,0.5,12.7,0.1z"/>
			</g>
		</g>
	</g>
</g>
<path id="XMLID_119_" class="st5" d="M42,28c-1.5,0-2.8-0.2-4-0.6c-1.2-0.4-2.2-1.1-3-2c-0.8-0.9-1.5-2-1.9-3.5
	c-0.5-1.4-0.7-3.1-0.7-5.1V9.7c0-1.5,0.2-2.7,0.7-3.6c0.5-0.8,1.1-1.4,2.1-1.8c0.5-0.2,1.2-0.4,1.9-0.4c0.5-0.1,1-0.1,1.6-0.1
	c0.6,0,1.1,0,1.5,0c1.2,0,2.2,0.2,3,0.5c0.9,0.3,1.6,0.8,2.2,1.3c0.6,0.5,1,1.2,1.3,1.9c0.3,0.7,0.4,1.4,0.4,2.2
	c0,0.7-0.1,1.4-0.4,2c-0.3,0.6-0.7,1.2-1.2,1.7c0.7,0.3,1.3,0.6,1.9,1c0.6,0.4,1.1,0.9,1.5,1.5c0.4,0.6,0.8,1.2,1,2
	c0.2,0.7,0.4,1.6,0.4,2.5c0,1-0.2,2-0.6,2.9c-0.4,0.9-1,1.8-1.7,2.5c-0.7,0.7-1.6,1.3-2.6,1.7C44.4,27.8,43.3,28,42,28z M42,24.6
	c0.7,0,1.3-0.1,1.9-0.4c0.5-0.2,0.9-0.6,1.3-1c0.3-0.4,0.6-0.9,0.7-1.4c0.1-0.5,0.2-1.1,0.2-1.7c0-1-0.2-1.8-0.5-2.5
	c-0.3-0.6-0.8-1.1-1.3-1.5c-0.5-0.4-1.1-0.6-1.8-0.7c-0.6-0.1-1.3-0.2-1.8-0.2c-0.5,0-1.1,0-1.5,0c-0.5,0-0.9,0-1.3,0
	c-0.4,0-0.8,0-1.2,0v1.5c0,1.5,0,2.8,0.3,3.8c0.2,1,0.6,1.8,1.1,2.4c0.5,0.6,1.1,1,1.7,1.2C40.4,24.5,41.1,24.6,42,24.6z M36.6,12.6
	h2.9c1.2,0,2.2-0.2,2.9-0.7c0.7-0.5,1-1.2,1-2.3c0-0.5-0.1-1-0.3-1.4c-0.2-0.4-0.4-0.7-0.7-0.9c-0.3-0.2-0.6-0.4-1-0.5
	c-0.4-0.1-0.8-0.2-1.1-0.2c-0.3,0-0.6,0-1,0c-0.4,0-0.8,0-1.2,0.2c-0.4,0.1-0.7,0.3-1,0.5c-0.3,0.2-0.4,0.6-0.4,1V12.6z"/>
<path id="XMLID_117_" class="st5" d="M57.8,7.2c0-0.7,0-1.2,0-1.6c0-0.4,0-0.8,0-1c0-0.3,0-0.5-0.1-0.6c2.8,0,4.1,1.3,4.1,4l0.1,8.6
	c0,1.5,0.1,2.7,0.2,3.7c0.1,1,0.4,1.8,0.8,2.4c0.4,0.6,1,1,1.7,1.3c0.7,0.3,1.7,0.4,2.9,0.4c0.6,0,1.1,0,1.5,0c0.5,0,0.9,0,1.2,0
	c0.4,0,0.7-0.1,1-0.1v0.2c0,0.4-0.1,0.7-0.3,1.1c-0.2,0.4-0.4,0.8-0.8,1.1c-0.3,0.3-0.8,0.6-1.3,0.8c-0.5,0.2-1.2,0.3-1.9,0.3
	c-1.8,0-3.3-0.2-4.5-0.6c-1.2-0.4-2.1-1-2.8-1.9c-0.7-0.9-1.2-2-1.4-3.5c-0.3-1.5-0.4-3.3-0.4-5.4V7.2z"/>
<path id="XMLID_115_" class="st5" d="M156.7,4.1c-1.4,3.6-2.7,6.9-3.8,9.9c-0.5,1.3-1,2.6-1.5,3.8c-0.5,1.3-1,2.4-1.4,3.5
	c-0.4,1.1-0.8,2-1.2,2.8c-0.3,0.8-0.6,1.4-0.8,1.7c-0.4,0.7-0.8,1.2-1.4,1.5c-0.5,0.3-1,0.4-1.5,0.5c-0.6,0.1-1.1,0-1.7-0.2
	l-9.4-23.5c0.5-0.1,1.1-0.1,1.6-0.1c0.6,0,1.1,0.1,1.5,0.3c0.5,0.2,0.9,0.4,1.3,0.8c0.4,0.4,0.7,0.8,1,1.4c0,0.1,0.1,0.4,0.3,0.9
	c0.2,0.5,0.4,1.1,0.7,1.8c0.3,0.7,0.6,1.5,0.9,2.4c0.3,0.9,0.7,1.8,1,2.7c0.8,2.2,1.8,4.6,2.8,7.4c1-2.7,2-5.2,2.8-7.4
	c0.4-0.9,0.7-1.8,1.1-2.7c0.3-0.9,0.6-1.7,0.9-2.4c0.3-0.7,0.5-1.3,0.7-1.8c0.2-0.5,0.3-0.8,0.4-0.9c0.2-0.6,0.6-1.1,1-1.4
	c0.4-0.3,0.8-0.6,1.3-0.8c0.5-0.2,1-0.3,1.5-0.3C155.6,3.9,156.2,4,156.7,4.1z"/>
<g id="XMLID_107_">
	<path id="XMLID_110_" class="st5" d="M88.7,3.7c1.5,0,2.9,0.3,4.3,0.8c1.4,0.5,2.6,1.3,3.7,2.3c1.1,1,2,2.3,2.6,3.8
		c0.6,1.5,1,3.2,1,5.2c0,2-0.3,3.7-1,5.2c-0.6,1.5-1.5,2.8-2.6,3.8c-1.1,1-2.3,1.8-3.7,2.3c-1.4,0.5-2.8,0.8-4.3,0.8
		c-1.5,0-2.9-0.3-4.3-0.8c-1.4-0.5-2.6-1.3-3.7-2.3c-1.1-1-2-2.3-2.6-3.8c-0.6-1.5-1-3.3-1-5.2c0-2,0.3-3.7,1-5.2
		c0.6-1.5,1.5-2.8,2.6-3.8c1.1-1,2.3-1.8,3.7-2.3C85.8,4,87.2,3.7,88.7,3.7z M88.7,25c0.9,0,1.7-0.2,2.6-0.5
		c0.9-0.4,1.6-0.9,2.3-1.7c0.7-0.8,1.2-1.7,1.6-2.9c0.4-1.2,0.6-2.5,0.6-4.1c0-1.6-0.2-2.9-0.6-4.1c-0.4-1.2-0.9-2.1-1.6-2.8
		c-0.7-0.7-1.4-1.3-2.3-1.7c-0.8-0.4-1.7-0.5-2.6-0.5c-0.9,0-1.7,0.2-2.6,0.5c-0.8,0.4-1.6,0.9-2.3,1.7c-0.7,0.7-1.2,1.7-1.6,2.8
		c-0.4,1.2-0.6,2.5-0.6,4.1c0,1.6,0.2,3,0.6,4.1c0.4,1.2,1,2.1,1.6,2.9c0.7,0.8,1.4,1.3,2.3,1.7C87,24.8,87.8,25,88.7,25z"/>
	<path id="XMLID_108_" class="st5" d="M99.3,10.6c-0.6-1.5-1.5-2.8-2.6-3.8c-1.1-1-2.3-1.8-3.7-2.3c-1.1-0.4-2.2-0.6-3.4-0.7
		c1,1.1,1.8,2.4,2.5,3.9c0.5,0.3,1,0.7,1.5,1.2c0.7,0.7,1.2,1.7,1.6,2.8c0.4,1.2,0.6,2.5,0.6,4.1c0,1.6-0.2,3-0.6,4.1
		c-0.4,1.2-0.9,2.1-1.6,2.9c-0.7,0.8-1.4,1.3-2.3,1.7c-0.2,0.1-0.5,0.2-0.7,0.2c-0.9,1.2-1.9,2.3-3,3.1c0.4,0,0.8,0.1,1.2,0.1
		c1.5,0,2.9-0.3,4.3-0.8c1.4-0.5,2.6-1.3,3.7-2.3c1.1-1,2-2.3,2.6-3.8c0.6-1.5,1-3.3,1-5.2C100.3,13.8,100,12.1,99.3,10.6z"/>
</g>
<g id="XMLID_98_">
	<path id="XMLID_102_" class="st5" d="M118.7,3.7c1.5,0,2.9,0.3,4.3,0.8c1.4,0.5,2.6,1.3,3.7,2.3c1.1,1,1.9,2.3,2.6,3.8
		c0.6,1.5,1,3.2,1,5.2c0,2-0.3,3.7-1,5.3c-0.6,1.5-1.5,2.8-2.6,3.8c-1.1,1-2.3,1.8-3.7,2.3c-1.4,0.5-2.8,0.8-4.3,0.8
		c-1.5,0-2.9-0.3-4.3-0.8c-1.4-0.5-2.6-1.3-3.7-2.3c-1.1-1-1.9-2.3-2.6-3.8c-0.6-1.5-1-3.3-1-5.3c0-2,0.3-3.7,1-5.2
		c0.6-1.5,1.5-2.8,2.6-3.8c1.1-1,2.3-1.8,3.7-2.3C115.7,4,117.2,3.7,118.7,3.7z M118.7,25.1c0.9,0,1.7-0.2,2.6-0.5
		c0.8-0.4,1.6-0.9,2.3-1.7c0.7-0.8,1.2-1.7,1.6-2.9c0.4-1.2,0.6-2.5,0.6-4.1c0-1.6-0.2-2.9-0.6-4.1c-0.4-1.2-0.9-2.1-1.6-2.8
		c-0.7-0.7-1.4-1.3-2.3-1.7c-0.8-0.4-1.7-0.5-2.6-0.5c-0.9,0-1.7,0.2-2.6,0.5c-0.8,0.4-1.6,0.9-2.3,1.7c-0.7,0.7-1.2,1.7-1.6,2.8
		c-0.4,1.2-0.6,2.5-0.6,4.1c0,1.6,0.2,3,0.6,4.1c0.4,1.1,1,2.1,1.6,2.9c0.7,0.8,1.4,1.3,2.3,1.7C116.9,24.9,117.8,25.1,118.7,25.1z"
		/>
	<path id="XMLID_100_" class="st5" d="M129.3,10.6c-0.6-1.5-1.5-2.8-2.6-3.8c-1.1-1-2.3-1.8-3.7-2.3c-1.1-0.4-2.2-0.6-3.4-0.7
		c1,1.1,1.8,2.4,2.5,3.9c0.5,0.3,1,0.7,1.5,1.2c0.7,0.7,1.2,1.7,1.6,2.8c0.4,1.2,0.6,2.5,0.6,4.1c0,1.6-0.2,3-0.6,4.1
		c-0.4,1.1-0.9,2.1-1.6,2.9c-0.7,0.8-1.4,1.3-2.3,1.7c-0.2,0.1-0.5,0.2-0.7,0.2c-0.9,1.2-1.9,2.3-3,3.1c0.4,0,0.8,0.1,1.2,0.1
		c1.5,0,2.9-0.3,4.3-0.8c1.4-0.5,2.6-1.3,3.7-2.3c1.1-1,1.9-2.3,2.6-3.8c0.6-1.5,1-3.3,1-5.3C130.2,13.8,129.9,12.1,129.3,10.6z"/>
</g>
<g id="XMLID_90_">
	<path id="XMLID_92_" class="st5" d="M172.3,3.8c1.5,0,2.9,0.3,4.3,0.8c1.4,0.5,2.6,1.3,3.7,2.3c1.1,1,1.9,2.3,2.6,3.8
		c0.6,1.5,1,3.2,1,5.2c0,2-0.3,3.7-1,5.2c-0.6,1.5-1.5,2.8-2.6,3.8c-1.1,1-2.3,1.8-3.7,2.3c-1.4,0.5-2.8,0.8-4.3,0.8
		c-1.5,0-2.9-0.3-4.3-0.8c-1.4-0.5-2.6-1.3-3.7-2.3c-1.1-1-1.9-2.3-2.6-3.8c-0.6-1.5-1-3.3-1-5.2c0-2,0.3-3.7,1-5.2
		c0.6-1.5,1.5-2.8,2.6-3.8c1.1-1,2.3-1.8,3.7-2.3C169.3,4.1,170.8,3.8,172.3,3.8z M172.3,25.2c0.9,0,1.7-0.2,2.6-0.5
		c0.8-0.4,1.6-0.9,2.3-1.7c0.7-0.8,1.2-1.7,1.6-2.9c0.4-1.1,0.6-2.5,0.6-4.1c0-1.6-0.2-2.9-0.6-4.1c-0.4-1.2-1-2.1-1.6-2.8
		c-0.7-0.7-1.4-1.3-2.3-1.7c-0.8-0.4-1.7-0.5-2.6-0.5c-0.9,0-1.7,0.2-2.6,0.5c-0.8,0.4-1.6,0.9-2.3,1.7c-0.7,0.7-1.2,1.7-1.6,2.8
		c-0.4,1.2-0.6,2.5-0.6,4.1c0,1.6,0.2,3,0.6,4.1c0.4,1.2,0.9,2.1,1.6,2.9c0.7,0.8,1.4,1.3,2.3,1.7C170.5,25,171.4,25.2,172.3,25.2z"
		/>
	<path id="XMLID_91_" class="st5" d="M182.9,10.7c-0.6-1.5-1.5-2.8-2.6-3.8c-1.1-1-2.3-1.8-3.7-2.3c-1.1-0.4-2.2-0.6-3.4-0.7
		c1,1.1,1.8,2.4,2.5,3.9c0.5,0.3,1,0.7,1.5,1.2c0.7,0.7,1.2,1.7,1.6,2.8c0.4,1.2,0.6,2.5,0.6,4.1c0,1.6-0.2,3-0.6,4.1
		c-0.4,1.2-1,2.1-1.6,2.9c-0.7,0.8-1.4,1.3-2.3,1.7c-0.2,0.1-0.5,0.2-0.7,0.2c-0.9,1.2-1.9,2.3-3,3.1c0.4,0,0.8,0.1,1.2,0.1
		c1.5,0,2.9-0.3,4.3-0.8c1.4-0.5,2.6-1.3,3.7-2.3c1.1-1,1.9-2.3,2.6-3.8c0.6-1.5,1-3.3,1-5.2C183.8,13.9,183.5,12.2,182.9,10.7z"/>
</g>
<g id="XMLID_3_">
	<defs>
		<path id="XMLID_4_" d="M14.9,14.1c2-1.5,3-3.5,3-6.2c0-2.3-0.7-4.1-2.1-5.5c-1.4-1.4-3.1-2.1-5.2-2.1H9.4C7.8,0.8,6.5,1.8,5.3,3.1
			c3-0.5,6.7-0.3,8.1,1.4c0.8,0.9,1.2,1.9,1.2,3.4c0,1.4-0.4,2.6-1.2,3.4c-0.8,0.8-1.8,1.2-2.9,1.2l-10,0c-0.2,1-0.4,2-0.5,3l9.4,0
			c1.9,0,3.5,0.7,4.8,2c1.4,1.4,2.1,2.9,2.1,4.6c0,1.7-0.5,3.4-2.1,4.6c-2.7,1.9-5.7,2.4-8.1,2.2c1.5,0.9,3.7,1.6,5.9,1.6
			c0.8,0,1.5,0.1,2.4-0.4c1-0.5,1.6-1.1,2-1.5c2-1.9,3-4.1,3-6.6C19.5,18.7,18,16.1,14.9,14.1z"/>
	</defs>
	<use xlink:href="#XMLID_4_"  style="overflow:visible;fill:#FFFFFF;"/>
	<clipPath id="XMLID_6_">
		<use xlink:href="#XMLID_4_"  style="overflow:visible;"/>
	</clipPath>
	<g id="XMLID_29_" class="st6">
		<path id="XMLID_31_" class="st5" d="M0,17c0-7.3,5-17.2,12.2-17.2c7.3,0,12.2,9.9,12.2,17.2c0,7.3-5,13.2-12.2,13.2
			C4.9,30.2,0,24.3,0,17z"/>
		<path id="XMLID_30_" class="st5" d="M12.8-0.1c4.3,3.2,7,10,7,15.3c0,7.3-3.3,14.1-11.7,13.7c-0.6,0-1.2-0.1-1.8-0.2
			c1.8,1,3.8,1.5,6.1,1.5c2.7,0,5.1-0.8,7.1-2.2c3.2-2.4,5.2-6.4,5.2-10.9C24.7,9.9,19.9,0.2,12.8-0.1z"/>
	</g>
</g>
</svg>
