<?xml version="1.0" encoding="utf-8"?>
<!-- Generator: Adobe Illustrator 19.0.0, SVG Export Plug-In . SVG Version: 6.00 Build 0)  -->
<svg version="1.1" id="Layer_1" xmlns="http://www.w3.org/2000/svg" xmlns:xlink="http://www.w3.org/1999/xlink" x="0px" y="0px"
	 viewBox="-540.8 367.5 121.6 31.1" style="enable-background:new -540.8 367.5 121.6 31.1;" xml:space="preserve">
<style type="text/css">
	.st0{clip-path:url(#SVGID_2_);}
	.st1{fill:#2F6BB3;}
	.st2{fill:#0F5FA5;}
	.st3{fill:#3A78BC;}
	.st4{clip-path:url(#SVGID_4_);}
	.st5{fill:#83A4B6;}
	.st6{fill:#FFFFFF;}
	.st7{clip-path:url(#SVGID_6_);}
</style>
<g>
	<g>
		<g id="XMLID_1_">
			<g id="XMLID_34_">
				<g id="XMLID_9_">
					<defs>
						<path id="SVGID_1_" d="M-540.7,385c0-7.4,5.1-17.5,12.5-17.5s12.5,10.1,12.5,17.5s-5.1,13.4-12.5,13.4
							C-535.7,398.5-540.7,392.5-540.7,385z"/>
					</defs>
					<clipPath id="SVGID_2_">
						<use xlink:href="#SVGID_1_"  style="overflow:visible;"/>
					</clipPath>
					<g id="XMLID_24_" class="st0">
						<path id="XMLID_39_" class="st1" d="M-540.7,385.1c0-7.4,5.1-17.6,12.5-17.6s12.5,10.1,12.5,17.6s-5.1,13.4-12.5,13.4
							S-540.7,392.5-540.7,385.1z"/>
						<g id="XMLID_36_">
							<path id="XMLID_38_" class="st1" d="M-540.9,385c0-7.4,5.1-17.5,12.5-17.5c7.4,0,12.5,10.1,12.5,17.5s-5.1,13.4-12.5,13.4
								C-535.9,398.5-540.9,392.5-540.9,385z"/>
							<path id="XMLID_37_" class="st2" d="M-527.8,367.5c4.4,3.3,7.1,10.2,7.1,15.6c0,7.4-3.4,14.4-12,14c-0.6,0-1.2-0.1-1.8-0.2
								c1.8,1,3.9,1.5,6.2,1.5c2.8,0,5.2-0.8,7.2-2.3c3.3-2.4,5.3-6.5,5.3-11.1C-515.7,377.8-520.6,367.9-527.8,367.5z"/>
						</g>
						<g id="XMLID_25_">
							<g>
								<circle id="XMLID_27_" class="st3" cx="-537.4" cy="379.4" r="13.2"/>
							</g>
							<g id="XMLID_26_">
								<defs>
									<circle id="SVGID_3_" cx="-537.4" cy="379.4" r="13.2"/>
								</defs>
								<clipPath id="SVGID_4_">
									<use xlink:href="#SVGID_3_"  style="overflow:visible;"/>
								</clipPath>
								<g id="XMLID_28_" class="st4">
									<path id="XMLID_35_" class="st3" d="M-541,385.1c0-7.4,5.1-17.5,12.5-17.5c7.4,0,12.5,10.1,12.5,17.5s-5.1,13.4-12.5,13.4
										C-535.9,398.6-541,392.5-541,385.1z"/>
									<path id="XMLID_33_" class="st3" d="M-527.8,367.6c4.4,3.3,7.2,10.2,7.2,15.6c0,7.4-3.4,14.4-12,14c-0.6,0-1.2-0.1-1.8-0.2
										c1.8,1,3.9,1.5,6.2,1.5c2.8,0,5.2-0.8,7.2-2.3c3.3-2.4,5.3-6.5,5.3-11.1C-515.7,377.8-520.6,368-527.8,367.6z"/>
								</g>
							</g>
						</g>
					</g>
					<g id="XMLID_10_" class="st0">
						<g id="XMLID_11_">
							<path id="XMLID_23_" class="st1" d="M-499,394.1c-1.3,0-2.4-0.2-3.4-0.5c-1-0.4-1.9-0.9-2.6-1.7c-0.7-0.8-1.3-1.8-1.7-3
								s-0.6-2.7-0.6-4.4v-6.1c0-1.3,0.2-2.4,0.6-3.1c0.4-0.7,1-1.2,1.8-1.6c0.5-0.2,1-0.3,1.7-0.4c0.4-0.2,0.9-0.2,1.4-0.2
								s0.9,0,1.3,0c1,0,1.9,0.1,2.6,0.4c0.7,0.3,1.4,0.7,1.9,1.1c0.5,0.5,0.9,1,1.1,1.6c0.2,0.6,0.4,1.2,0.4,1.9
								c0,0.6-0.1,1.2-0.4,1.7c-0.2,0.5-0.6,1-1,1.5c0.6,0.2,1.1,0.5,1.6,0.9c0.5,0.4,0.9,0.8,1.3,1.3c0.4,0.5,0.7,1.1,0.9,1.7
								c0.2,0.6,0.3,1.4,0.3,2.1c0,0.9-0.2,1.7-0.5,2.5c-0.3,0.8-0.8,1.5-1.5,2.1c-0.6,0.6-1.4,1.1-2.3,1.5
								C-496.9,393.9-497.9,394.1-499,394.1z M-499,391.2c0.6,0,1.2-0.1,1.6-0.3c0.4-0.2,0.8-0.5,1.1-0.8c0.3-0.3,0.5-0.7,0.6-1.2
								s0.2-1,0.2-1.5c0-0.9-0.1-1.6-0.4-2.1c-0.3-0.6-0.7-1-1.1-1.3c-0.5-0.3-1-0.5-1.5-0.6c-0.6-0.1-1.1-0.2-1.6-0.1
								c-0.5,0-0.9,0-1.3,0c-0.4,0-0.8,0-1.1,0c-0.4,0-0.7,0-1.1,0v1.3c0,1.3,0,2.4,0.2,3.3c0.2,0.9,0.5,1.6,0.9,2.1
								s0.9,0.9,1.5,1.1C-500.4,391.1-499.7,391.2-499,391.2z M-503.7,380.8h2.5c1.1,0,1.9-0.2,2.5-0.6c0.6-0.4,0.9-1.1,0.9-2
								c0-0.5-0.1-0.9-0.2-1.2c-0.2-0.3-0.4-0.6-0.6-0.8c-0.4-0.2-0.6-0.4-1-0.4c-0.3-0.1-0.7-0.1-1-0.1c-0.2,0-0.5,0-0.9,0
								c-0.4,0-0.7,0-1,0.1c-0.3,0-0.6,0.2-0.8,0.4c-0.2,0.2-0.4,0.5-0.4,0.9V380.8z"/>
							<path id="XMLID_22_" class="st1" d="M-483.6,376c0-0.6,0-1.1,0-1.4c0-0.4,0-0.7,0-0.9c0-0.2,0-0.4-0.1-0.5
								c2.4,0,3.6,1.1,3.6,3.4l0.1,7.5c0,1.3,0.1,2.3,0.2,3.2c0.1,0.9,0.3,1.6,0.7,2.1c0.3,0.5,0.8,0.9,1.5,1.1
								c0.6,0.2,1.5,0.3,2.5,0.3c0.5,0,0.9,0,1.3,0c0.4,0,0.7,0,1,0c0.3,0,0.6,0,0.9-0.1v0.2c0,0.3-0.1,0.6-0.2,1
								c-0.1,0.3-0.4,0.7-0.7,0.9c-0.3,0.3-0.7,0.5-1.1,0.7c-0.5,0.2-1,0.3-1.7,0.3c-1.6,0-2.9-0.2-3.9-0.5c-1-0.3-1.8-0.9-2.4-1.6
								c-0.6-0.8-1-1.8-1.2-3c-0.2-1.3-0.4-2.8-0.4-4.7v-8H-483.6z"/>
							<path id="XMLID_21_" class="st1" d="M-392.6,373.4c-1.2,3.1-2.3,6-3.3,8.5c-0.4,1.1-0.9,2.2-1.3,3.3
								c-0.4,1.1-0.8,2.1-1.2,3.1c-0.4,0.9-0.7,1.8-1,2.4c-0.3,0.7-0.5,1.2-0.7,1.5c-0.3,0.6-0.7,1.1-1.2,1.3
								c-0.4,0.2-0.9,0.4-1.3,0.4c-0.5,0.1-1,0-1.4-0.1l-8.1-20.4c0.5-0.1,0.9-0.1,1.4-0.1s0.9,0.1,1.3,0.2s0.8,0.4,1.1,0.7
								c0.3,0.3,0.6,0.7,0.8,1.2c0,0.1,0.1,0.3,0.3,0.7c0.2,0.4,0.4,1,0.6,1.6c0.2,0.6,0.5,1.3,0.8,2.1c0.3,0.8,0.6,1.6,0.9,2.4
								c0.7,1.9,1.5,4,2.5,6.4c0.9-2.4,1.7-4.5,2.4-6.4c0.3-0.8,0.6-1.6,0.9-2.4c0.3-0.8,0.6-1.5,0.8-2.1c0.2-0.6,0.4-1.2,0.6-1.6
								c0.2-0.4,0.3-0.7,0.3-0.7c0.2-0.5,0.5-0.9,0.8-1.2c0.3-0.3,0.7-0.5,1.1-0.7c0.4-0.1,0.9-0.2,1.3-0.2
								C-393.6,373.3-393.1,373.3-392.6,373.4z"/>
							<g id="XMLID_18_">
								<path id="XMLID_20_" class="st1" d="M-455,373.1c1.3,0,2.5,0.2,3.7,0.7c1.2,0.5,2.3,1.1,3.2,2c0.9,0.9,1.7,2,2.2,3.3
									c0.6,1.3,0.8,2.8,0.8,4.5c0,1.7-0.3,3.2-0.8,4.5c-0.6,1.3-1.3,2.4-2.2,3.3s-2,1.6-3.2,2c-1.2,0.4-2.5,0.7-3.7,0.7
									c-1.3,0-2.5-0.2-3.7-0.7c-1.2-0.4-2.3-1.1-3.2-2s-1.7-2-2.2-3.3c-0.6-1.3-0.8-2.8-0.8-4.5c0-1.7,0.3-3.2,0.8-4.5
									c0.6-1.3,1.3-2.4,2.2-3.3c0.9-0.9,2-1.5,3.2-2C-457.6,373.3-456.3,373.1-455,373.1z M-455,391.5c0.8,0,1.5-0.2,2.2-0.5
									c0.7-0.3,1.4-0.8,2-1.5c0.6-0.7,1.1-1.5,1.4-2.5c0.4-1,0.5-2.2,0.5-3.6s-0.2-2.6-0.5-3.5c-0.4-1-0.8-1.8-1.4-2.5
									c-0.6-0.6-1.2-1.1-2-1.4c-0.7-0.3-1.5-0.5-2.2-0.5c-0.8,0-1.5,0.2-2.2,0.5c-0.7,0.3-1.4,0.8-2,1.4c-0.6,0.6-1.1,1.5-1.4,2.5
									c-0.4,1-0.5,2.2-0.5,3.5c0,1.4,0.2,2.6,0.5,3.6c0.4,1,0.8,1.8,1.4,2.5c0.6,0.7,1.2,1.2,2,1.5
									C-456.6,391.4-455.8,391.5-455,391.5z"/>
								<path id="XMLID_19_" class="st5" d="M-445.8,379c-0.6-1.3-1.3-2.4-2.2-3.3c-0.9-0.9-2-1.5-3.2-2c-0.9-0.4-1.9-0.5-2.9-0.6
									c0.8,1,1.6,2.1,2.1,3.4c0.4,0.3,0.9,0.6,1.3,1c0.6,0.6,1.1,1.5,1.4,2.5c0.4,1,0.5,2.2,0.5,3.5c0,1.4-0.2,2.6-0.5,3.6
									c-0.4,1-0.8,1.8-1.4,2.5c-0.6,0.7-1.2,1.2-2,1.5c-0.2,0.1-0.4,0.1-0.6,0.2c-0.7,1.1-1.6,2-2.6,2.7c0.3,0,0.7,0.1,1,0.1
									c1.3,0,2.5-0.2,3.7-0.7c1.2-0.4,2.3-1.1,3.2-2s1.7-2,2.2-3.3c0.6-1.3,0.8-2.8,0.8-4.5C-445,381.8-445.3,380.3-445.8,379z"/>
							</g>
							<g id="XMLID_15_">
								<path id="XMLID_17_" class="st1" d="M-427.3,373.1c1.3,0,2.5,0.2,3.7,0.7c1.2,0.4,2.3,1.1,3.2,2c0.9,0.9,1.7,2,2.2,3.3
									c0.6,1.3,0.8,2.8,0.8,4.5c0,1.7-0.3,3.2-0.8,4.6c-0.6,1.3-1.3,2.4-2.2,3.3s-2,1.6-3.2,2c-1.2,0.4-2.5,0.7-3.7,0.7
									c-1.3,0-2.5-0.2-3.7-0.7c-1.2-0.5-2.3-1.1-3.2-2s-1.7-2-2.2-3.3c-0.6-1.3-0.8-2.8-0.8-4.6c0-1.7,0.3-3.2,0.8-4.5
									c0.6-1.3,1.3-2.4,2.2-3.3c0.9-0.9,2-1.5,3.2-2C-429.9,373.3-428.6,373.1-427.3,373.1z M-427.3,391.6c0.8,0,1.5-0.2,2.2-0.5
									c0.7-0.3,1.4-0.8,2-1.5c0.6-0.7,1.1-1.5,1.4-2.5c0.4-1,0.5-2.2,0.5-3.6s-0.2-2.6-0.5-3.5c-0.3-1-0.8-1.8-1.4-2.5
									c-0.6-0.6-1.2-1.1-2-1.4c-0.7-0.3-1.5-0.5-2.2-0.5c-0.8,0-1.5,0.2-2.2,0.5c-0.7,0.3-1.4,0.8-2,1.4s-1.1,1.5-1.4,2.5
									c-0.3,1-0.5,2.2-0.5,3.5c0,1.4,0.2,2.6,0.5,3.6c0.4,1,0.8,1.8,1.4,2.5c0.6,0.7,1.2,1.2,2,1.5
									C-428.8,391.4-428.1,391.6-427.3,391.6z"/>
								<path id="XMLID_16_" class="st5" d="M-418.1,379c-0.6-1.3-1.3-2.4-2.2-3.3c-0.9-0.9-2-1.5-3.2-2c-0.9-0.4-1.9-0.5-2.9-0.6
									c0.8,1,1.6,2.1,2.1,3.4c0.4,0.3,0.9,0.6,1.3,1c0.6,0.6,1.1,1.5,1.4,2.5c0.4,1,0.5,2.2,0.5,3.5c0,1.4-0.2,2.6-0.5,3.6
									c-0.3,1-0.8,1.8-1.4,2.5c-0.6,0.7-1.2,1.2-2,1.5c-0.2,0.1-0.4,0.1-0.6,0.2c-0.8,1.1-1.6,2-2.6,2.7c0.3,0,0.7,0.1,1,0.1
									c1.3,0,2.5-0.2,3.7-0.7c1.2-0.5,2.3-1.1,3.2-2c0.9-0.9,1.7-2,2.2-3.3c0.6-1.3,0.8-2.8,0.8-4.6
									C-417.3,381.8-417.6,380.3-418.1,379z"/>
							</g>
							<g id="XMLID_12_">
								<path id="XMLID_14_" class="st1" d="M-377.4,373.2c1.3,0,2.5,0.2,3.7,0.7c1.2,0.5,2.3,1.1,3.2,2s1.7,2,2.2,3.3
									c0.6,1.3,0.8,2.8,0.8,4.5c0,1.7-0.3,3.2-0.8,4.5c-0.6,1.3-1.3,2.4-2.2,3.3s-2,1.6-3.2,2c-1.2,0.4-2.5,0.7-3.7,0.7
									c-1.3,0-2.5-0.2-3.7-0.7c-1.2-0.5-2.3-1.1-3.2-2s-1.7-2-2.2-3.3c-0.6-1.3-0.8-2.8-0.8-4.5c0-1.7,0.3-3.2,0.8-4.5
									c0.6-1.3,1.3-2.4,2.2-3.3s2-1.5,3.2-2C-380,373.4-378.7,373.2-377.4,373.2z M-377.4,391.6c0.8,0,1.5-0.2,2.2-0.5
									c0.7-0.3,1.4-0.8,2-1.5c0.6-0.7,1.1-1.5,1.4-2.5c0.4-1,0.5-2.2,0.5-3.6s-0.2-2.5-0.5-3.5c-0.4-1-0.8-1.8-1.4-2.5
									c-0.6-0.6-1.2-1.1-2-1.4c-0.7-0.3-1.5-0.5-2.2-0.5c-0.8,0-1.5,0.2-2.2,0.5c-0.7,0.3-1.4,0.8-2,1.4s-1.1,1.5-1.4,2.5
									c-0.4,1-0.5,2.2-0.5,3.5c0,1.4,0.2,2.6,0.5,3.6c0.4,1,0.8,1.8,1.4,2.5c0.6,0.7,1.2,1.2,2,1.5
									C-378.9,391.5-378.2,391.6-377.4,391.6z"/>
								<path id="XMLID_13_" class="st5" d="M-368.2,379.1c-0.6-1.3-1.3-2.4-2.2-3.3c-0.9-0.9-2-1.5-3.2-2c-0.9-0.3-1.9-0.5-2.9-0.6
									c0.8,1,1.6,2.1,2.1,3.4c0.4,0.3,0.9,0.6,1.3,1c0.6,0.6,1.1,1.5,1.4,2.5c0.4,1,0.5,2.2,0.5,3.5c0,1.4-0.2,2.6-0.5,3.6
									c-0.4,1-0.8,1.8-1.4,2.5c-0.6,0.7-1.2,1.2-2,1.5c-0.2,0.1-0.4,0.1-0.6,0.2c-0.7,1.1-1.6,2-2.6,2.7c0.3,0,0.7,0.1,1,0.1
									c1.3,0,2.5-0.2,3.7-0.7c1.2-0.5,2.3-1.1,3.2-2s1.7-2,2.2-3.3c0.6-1.3,0.8-2.8,0.8-4.5C-367.4,381.9-367.7,380.4-368.2,379.1
									z"/>
							</g>
						</g>
					</g>
				</g>
			</g>
			<g id="XMLID_2_">
				<g>
					<path id="XMLID_5_" class="st6" d="M-525.6,381.9c2-1.5,3-3.6,3-6.3c0-2.3-0.7-4.2-2.2-5.6c-1.3-1.5-3.1-2.2-5.2-2.2h-1.2
						c-1.6,0.5-2.9,1.5-4.2,2.8c3-0.5,6.8-0.3,8.3,1.4c0.8,0.9,1.2,2,1.2,3.5s-0.4,2.6-1.2,3.4c-0.8,0.8-1.8,1.3-2.9,1.3h-10.2
						c-0.2,1-0.4,2-0.5,3h9.6c1.9,0,3.6,0.7,4.9,2.1c1.4,1.4,2.1,3,2.1,4.7s-0.5,3.5-2.1,4.7c-2.7,2-5.8,2.4-8.2,2.2
						c1.5,0.9,3.8,1.7,6.1,1.7c0.8,0,1.6,0.1,2.4-0.4c1-0.5,1.6-1.1,2-1.5c2.1-1.9,3.1-4.2,3.1-6.7
						C-520.8,386.6-522.4,383.9-525.6,381.9z"/>
				</g>
				<g>
					<defs>
						<path id="SVGID_5_" d="M-525.6,381.9c2-1.5,3-3.6,3-6.3c0-2.3-0.7-4.2-2.2-5.6c-1.3-1.5-3.1-2.2-5.2-2.2h-1.2
							c-1.6,0.5-2.9,1.5-4.2,2.8c3-0.5,6.8-0.3,8.3,1.4c0.8,0.9,1.2,2,1.2,3.5s-0.4,2.6-1.2,3.4c-0.8,0.8-1.8,1.3-2.9,1.3h-10.2
							c-0.2,1-0.4,2-0.5,3h9.6c1.9,0,3.6,0.7,4.9,2.1c1.4,1.4,2.1,3,2.1,4.7s-0.5,3.5-2.1,4.7c-2.7,2-5.8,2.4-8.2,2.2
							c1.5,0.9,3.8,1.7,6.1,1.7c0.8,0,1.6,0.1,2.4-0.4c1-0.5,1.6-1.1,2-1.5c2.1-1.9,3.1-4.2,3.1-6.7
							C-520.8,386.6-522.4,383.9-525.6,381.9z"/>
					</defs>
					<clipPath id="SVGID_6_">
						<use xlink:href="#SVGID_5_"  style="overflow:visible;"/>
					</clipPath>
					<g id="XMLID_6_" class="st7">
						<path id="XMLID_8_" class="st6" d="M-540.8,384.9c0-7.4,5.1-17.5,12.5-17.5c7.4,0,12.5,10.1,12.5,17.5s-5.1,13.4-12.5,13.4
							C-535.7,398.3-540.8,392.3-540.8,384.9z"/>
						<path id="XMLID_7_" class="st6" d="M-527.6,367.4c4.4,3.3,7.1,10.2,7.1,15.6c0,7.4-3.4,14.4-12,14c-0.6,0-1.2-0.1-1.8-0.2
							c1.8,1,3.9,1.5,6.2,1.5c2.8,0,5.2-0.8,7.2-2.3c3.3-2.4,5.3-6.5,5.3-11.1C-515.6,377.6-520.4,367.7-527.6,367.4z"/>
					</g>
				</g>
			</g>
		</g>
	</g>
</g>
<g>
	<path class="st6" d="M-502.9,391.5c-1,0-2-0.1-2.8-0.4c-0.8-0.3-1.5-0.8-2.1-1.4c-0.6-0.6-1-1.4-1.4-2.4c-0.3-1-0.5-2.2-0.5-3.6v-5
		c0-1.1,0.2-1.9,0.5-2.6c0.3-0.6,0.8-1,1.5-1.3c0.4-0.2,0.8-0.3,1.4-0.3c0.3,0,0.7-0.1,1.1-0.1c0.4,0,0.8,0,1,0
		c0.8,0,1.6,0.1,2.2,0.3s1.1,0.5,1.5,0.9c0.4,0.4,0.7,0.8,0.9,1.3c0.2,0.5,0.3,1,0.3,1.6c0,0.5-0.1,1-0.3,1.4s-0.5,0.8-0.8,1.2
		c0.5,0.2,0.9,0.4,1.3,0.7c0.4,0.3,0.8,0.6,1.1,1c0.3,0.4,0.5,0.9,0.7,1.4c0.2,0.5,0.3,1.1,0.3,1.8c0,0.7-0.1,1.4-0.4,2.1
		c-0.3,0.7-0.7,1.2-1.2,1.8c-0.5,0.5-1.1,0.9-1.8,1.2C-501.2,391.3-502,391.5-502.9,391.5z M-502.9,389.1c0.5,0,1-0.1,1.3-0.3
		c0.4-0.2,0.7-0.4,0.9-0.7c0.2-0.3,0.4-0.6,0.5-1c0.1-0.4,0.2-0.8,0.2-1.2c0-0.7-0.1-1.3-0.4-1.7c-0.2-0.5-0.5-0.8-0.9-1.1
		s-0.8-0.4-1.2-0.5c-0.5-0.1-0.9-0.1-1.3-0.1c-0.4,0-0.7,0-1.1,0s-0.7,0-0.9,0c-0.3,0-0.6,0-0.9,0v1c0,1.1,0,2,0.2,2.7
		c0.2,0.7,0.4,1.3,0.7,1.7c0.3,0.4,0.7,0.7,1.2,0.9C-504.1,389-503.5,389.1-502.9,389.1z M-506.7,380.6h2c0.9,0,1.5-0.2,2-0.5
		c0.5-0.3,0.7-0.9,0.7-1.6c0-0.4-0.1-0.7-0.2-1c-0.1-0.3-0.3-0.5-0.5-0.6c-0.2-0.2-0.5-0.3-0.7-0.4c-0.3-0.1-0.5-0.1-0.8-0.1
		c-0.2,0-0.4,0-0.7,0s-0.6,0-0.8,0.1c-0.3,0.1-0.5,0.2-0.7,0.3c-0.2,0.2-0.3,0.4-0.3,0.7V380.6z"/>
	<path class="st6" d="M-495.1,376.7c0-0.5,0-0.9,0-1.2c0-0.3,0-0.5,0-0.7c0-0.2,0-0.3,0-0.4c2,0,2.9,0.9,2.9,2.8l0,6.1
		c0,1,0,1.9,0.1,2.6c0.1,0.7,0.3,1.3,0.6,1.7c0.3,0.4,0.7,0.7,1.2,0.9c0.5,0.2,1.2,0.3,2.1,0.3c0.4,0,0.8,0,1.1,0c0.3,0,0.6,0,0.8,0
		c0.3,0,0.5,0,0.7-0.1v0.1c0,0.3-0.1,0.5-0.2,0.8c-0.1,0.3-0.3,0.5-0.6,0.8s-0.6,0.4-0.9,0.6c-0.4,0.2-0.8,0.2-1.4,0.2
		c-1.3,0-2.3-0.1-3.2-0.4s-1.5-0.7-2-1.3c-0.5-0.6-0.8-1.5-1-2.5c-0.2-1-0.3-2.3-0.3-3.8V376.7z"/>
	<path class="st6" d="M-476.6,374.3c1.1,0,2.1,0.2,3.1,0.6c1,0.4,1.9,0.9,2.6,1.6c0.8,0.7,1.4,1.6,1.8,2.7c0.5,1.1,0.7,2.3,0.7,3.7
		c0,1.4-0.2,2.6-0.7,3.7s-1.1,2-1.8,2.7c-0.8,0.7-1.6,1.3-2.6,1.6c-1,0.4-2,0.6-3.1,0.6c-1.1,0-2.1-0.2-3.1-0.6
		c-1-0.4-1.9-0.9-2.6-1.6c-0.8-0.7-1.4-1.6-1.8-2.7s-0.7-2.3-0.7-3.7c0-1.4,0.2-2.6,0.7-3.7c0.5-1.1,1.1-2,1.8-2.7
		c0.8-0.7,1.6-1.3,2.6-1.6C-478.6,374.5-477.6,374.3-476.6,374.3z M-476.6,389.4c0.6,0,1.2-0.1,1.8-0.4c0.6-0.3,1.1-0.7,1.6-1.2
		c0.5-0.5,0.9-1.2,1.2-2c0.3-0.8,0.4-1.8,0.4-2.9c0-1.1-0.1-2.1-0.4-2.9c-0.3-0.8-0.7-1.5-1.2-2c-0.5-0.5-1-0.9-1.6-1.2
		c-0.6-0.3-1.2-0.4-1.8-0.4s-1.2,0.1-1.8,0.4c-0.6,0.3-1.1,0.6-1.6,1.2c-0.5,0.5-0.9,1.2-1.2,2c-0.3,0.8-0.4,1.8-0.4,2.9
		c0,1.1,0.1,2.1,0.4,2.9c0.3,0.8,0.7,1.5,1.2,2c0.5,0.5,1,0.9,1.6,1.2C-477.8,389.3-477.2,389.4-476.6,389.4z"/>
	<path class="st6" d="M-458.7,374.3c1.1,0,2.1,0.2,3.1,0.6c1,0.4,1.9,0.9,2.6,1.6c0.8,0.7,1.4,1.6,1.8,2.7c0.5,1.1,0.7,2.3,0.7,3.7
		c0,1.4-0.2,2.6-0.7,3.7s-1.1,2-1.8,2.7c-0.8,0.7-1.6,1.3-2.6,1.6c-1,0.4-2,0.6-3.1,0.6c-1.1,0-2.1-0.2-3.1-0.6
		c-1-0.4-1.9-0.9-2.6-1.6c-0.8-0.7-1.4-1.6-1.8-2.7s-0.7-2.3-0.7-3.7c0-1.4,0.2-2.6,0.7-3.7c0.5-1.1,1.1-2,1.8-2.7
		c0.8-0.7,1.6-1.3,2.6-1.6C-460.8,374.5-459.8,374.3-458.7,374.3z M-458.7,389.4c0.6,0,1.2-0.1,1.8-0.4c0.6-0.3,1.1-0.7,1.6-1.2
		c0.5-0.5,0.9-1.2,1.2-2c0.3-0.8,0.4-1.8,0.4-2.9c0-1.1-0.1-2.1-0.4-2.9c-0.3-0.8-0.7-1.5-1.2-2c-0.5-0.5-1-0.9-1.6-1.2
		c-0.6-0.3-1.2-0.4-1.8-0.4s-1.2,0.1-1.8,0.4c-0.6,0.3-1.1,0.6-1.6,1.2c-0.5,0.5-0.9,1.2-1.2,2c-0.3,0.8-0.4,1.8-0.4,2.9
		c0,1.1,0.1,2.1,0.4,2.9c0.3,0.8,0.7,1.5,1.2,2c0.5,0.5,1,0.9,1.6,1.2C-459.9,389.3-459.3,389.4-458.7,389.4z"/>
	<path class="st6" d="M-435.1,374.5c-1,2.5-1.9,4.9-2.7,7c-0.4,0.9-0.7,1.8-1.1,2.7c-0.4,0.9-0.7,1.7-1,2.5c-0.3,0.8-0.6,1.4-0.8,2
		s-0.4,1-0.6,1.2c-0.3,0.5-0.6,0.9-1,1.1c-0.4,0.2-0.7,0.3-1,0.3c-0.4,0-0.8,0-1.2-0.1l-6.6-16.7c0.4-0.1,0.8-0.1,1.2-0.1
		c0.4,0,0.8,0.1,1.1,0.2c0.3,0.1,0.6,0.3,0.9,0.6s0.5,0.6,0.7,1c0,0.1,0.1,0.3,0.2,0.6c0.1,0.3,0.3,0.8,0.5,1.3
		c0.2,0.5,0.4,1.1,0.7,1.7c0.2,0.6,0.5,1.3,0.7,1.9c0.6,1.6,1.3,3.3,2,5.2c0.7-1.9,1.4-3.7,2-5.2c0.3-0.7,0.5-1.3,0.7-1.9
		c0.2-0.6,0.5-1.2,0.7-1.7c0.2-0.5,0.4-1,0.5-1.3c0.1-0.3,0.2-0.5,0.3-0.6c0.2-0.4,0.4-0.7,0.7-1c0.3-0.2,0.6-0.4,0.9-0.6
		c0.3-0.1,0.7-0.2,1.1-0.2C-435.9,374.5-435.5,374.5-435.1,374.5z"/>
	<path class="st6" d="M-427.5,374.3c1.1,0,2.1,0.2,3.1,0.6c1,0.4,1.9,0.9,2.6,1.6c0.8,0.7,1.4,1.6,1.8,2.7c0.5,1.1,0.7,2.3,0.7,3.7
		c0,1.4-0.2,2.6-0.7,3.7s-1.1,2-1.8,2.7c-0.8,0.7-1.6,1.3-2.6,1.6c-1,0.4-2,0.6-3.1,0.6c-1.1,0-2.1-0.2-3.1-0.6
		c-1-0.4-1.9-0.9-2.6-1.6c-0.8-0.7-1.4-1.6-1.8-2.7s-0.7-2.3-0.7-3.7c0-1.4,0.2-2.6,0.7-3.7c0.5-1.1,1.1-2,1.8-2.7
		c0.8-0.7,1.6-1.3,2.6-1.6C-429.5,374.5-428.5,374.3-427.5,374.3z M-427.5,389.4c0.6,0,1.2-0.1,1.8-0.4c0.6-0.3,1.1-0.7,1.6-1.2
		c0.5-0.5,0.9-1.2,1.2-2c0.3-0.8,0.4-1.8,0.4-2.9c0-1.1-0.1-2.1-0.4-2.9c-0.3-0.8-0.7-1.5-1.2-2c-0.5-0.5-1-0.9-1.6-1.2
		c-0.6-0.3-1.2-0.4-1.8-0.4s-1.2,0.1-1.8,0.4c-0.6,0.3-1.1,0.6-1.6,1.2c-0.5,0.5-0.9,1.2-1.2,2c-0.3,0.8-0.4,1.8-0.4,2.9
		c0,1.1,0.1,2.1,0.4,2.9c0.3,0.8,0.7,1.5,1.2,2c0.5,0.5,1,0.9,1.6,1.2C-428.7,389.3-428.1,389.4-427.5,389.4z"/>
</g>
</svg>
