<?xml version="1.0" encoding="utf-8"?>
<!-- Generator: Adobe Illustrator 19.2.1, SVG Export Plug-In . SVG Version: 6.00 Build 0)  -->
<svg version="1.1" id="Layer_1" xmlns="http://www.w3.org/2000/svg" xmlns:xlink="http://www.w3.org/1999/xlink" x="0px" y="0px"
	 viewBox="0 0 19.9 19.9" style="enable-background:new 0 0 19.9 19.9;" xml:space="preserve">
<style type="text/css">
	.st0{fill:#E1E1E1;}
</style>
<g>
	<path class="st0" d="M14.2,12.5l5.6,5.6l-1.7,1.7l-5.6-5.6v-0.9L12.2,13c-1.4,1.2-3,1.8-4.8,1.8c-2.1,0-3.8-0.7-5.2-2.2
		S0,9.4,0,7.4s0.7-3.8,2.2-5.2S5.3,0,7.4,0s3.8,0.7,5.2,2.2s2.2,3.2,2.2,5.2c0,1.8-0.6,3.4-1.8,4.8l0.3,0.3H14.2z M3.8,11
		c1,1,2.2,1.5,3.6,1.5S10,12,11,11s1.5-2.2,1.5-3.6S12,4.8,11,3.8S8.8,2.3,7.4,2.3S4.8,2.8,3.8,3.8S2.3,6,2.3,7.4S2.8,10,3.8,11z"/>
</g>
</svg>
