<?xml version="1.0" encoding="utf-8"?>
<!-- Generator: Adobe Illustrator 19.2.1, SVG Export Plug-In . SVG Version: 6.00 Build 0)  -->
<svg version="1.1" id="Layer_1" xmlns="http://www.w3.org/2000/svg" xmlns:xlink="http://www.w3.org/1999/xlink" x="0px" y="0px"
	 viewBox="0 0 78.3 97.7" style="enable-background:new 0 0 78.3 97.7;" xml:space="preserve">
<style type="text/css">
	.st0{fill:#374B61;}
	.st1{opacity:0.16;}
	.st2{opacity:0.16;fill:#374B61;}
</style>
<path class="st0" d="M39.2,58c7.1,0,13.8,2.8,18.8,7.8c0.7,0.7,0.7,1.9,0,2.6c-0.7,0.7-1.9,0.7-2.6,0c-4.3-4.3-10.1-6.7-16.2-6.7
	c-6.1,0-11.8,2.4-16.2,6.7c-0.7,0.7-1.9,0.7-2.6,0c-0.7-0.7-0.7-1.9,0-2.6C25.4,60.8,32.1,58,39.2,58z M35,38.6c0,2.5-2,4.5-4.5,4.5
	c-2.5,0-4.5-2-4.5-4.5c0-2.5,2-4.5,4.5-4.5C33,34.1,35,36.1,35,38.6z M52.4,38.6c0,2.5-2,4.5-4.5,4.5c-2.5,0-4.5-2-4.5-4.5
	c0-2.5,2-4.5,4.5-4.5C50.4,34.1,52.4,36.1,52.4,38.6z"/>
<g class="st1">
	<path class="st0" d="M76.6,42c-1.8-7.9-4.9-15.7-9.1-22.4C61.6,9.9,53.6,0,39.2,0c-6.4,0-12,1.9-16.9,5.8c-4,3.1-7.5,7.4-11.4,13.8
		C6.7,26.4,3.5,34.1,1.8,42C0,49.7-0.4,57.3,0.4,64.1c0.8,6.5,2.8,12.2,5.8,17c2.7,4.2,6.2,7.7,10.4,10.4c8.6,5.4,17.8,6.3,22.5,6.3
		c4.7,0,13.9-0.8,22.5-6.3c4.2-2.7,7.7-6.2,10.4-10.4c3-4.8,5-10.5,5.8-17C78.8,57.3,78.3,49.7,76.6,42z M73.7,64.2
		c-1.4,11-6.2,19.2-14.2,24.3c-8,5.1-16.9,5.6-20.3,5.6c-3.5,0-12.3-0.5-20.3-5.6c-8-5.1-12.8-13.2-14.2-24.3
		c-1.7-13.5,2.1-29.9,10.1-43c3.7-6,7.1-10.1,10.6-12.9c4.1-3.2,8.6-4.8,13.8-4.8c5.2,0,9.8,1.6,13.8,4.8c3.5,2.8,6.9,6.9,10.6,12.9
		C71.6,34.3,75.4,50.8,73.7,64.2z"/>
</g>
<ellipse transform="matrix(9.801823e-02 -0.9952 0.9952 9.801823e-02 -3.3289 123.3139)" class="st2" cx="66.4" cy="63.5" rx="6" ry="0.9"/>
</svg>
